<svg width="39" height="39" viewBox="0 0 39 39" fill="none" xmlns="http://www.w3.org/2000/svg">
<g id="zondicons:add-solid" clip-path="url(#clip0_152_494)">
<path id="Vector" d="M9.75 21.95H17.05V29.25V29.75H17.55H21.45H21.95V29.25V21.95H29.25H29.75V21.45V17.55V17.05H29.25H21.95V9.75V9.25H21.45H17.55H17.05V9.75V17.05H9.75H9.25V17.55V21.45V21.95H9.75ZM19.5 38.5C14.4609 38.5 9.62816 36.4982 6.06497 32.935C2.50178 29.3718 0.5 24.5391 0.5 19.5C0.5 14.4609 2.50178 9.62816 6.06497 6.06497C9.62816 2.50178 14.4609 0.5 19.5 0.5C24.5391 0.5 29.3718 2.50178 32.935 6.06497C36.4982 9.62816 38.5 14.4609 38.5 19.5C38.5 24.5391 36.4982 29.3718 32.935 32.935C29.3718 36.4982 24.5391 38.5 19.5 38.5Z" fill="#ACCA66" stroke="black"/>
</g>
<defs>
<clipPath id="clip0_152_494">
<rect width="39" height="39" fill="white"/>
</clipPath>
</defs>
</svg>
