<svg width="35" height="35" viewBox="0 0 35 35" fill="none" xmlns="http://www.w3.org/2000/svg">
<g id="mdi:cash-register">
<path id="Vector" d="M13.1253 10.5583H13.4753V10.2083V8.75V8.4H13.1253H9.10033V4.725H20.067V8.4H16.042H15.692V8.75V10.2083V10.5583H16.042H25.9587C26.5732 10.5583 27.221 10.8689 27.7609 11.3751C28.2938 11.8747 28.6859 12.5323 28.8195 13.1727L29.5203 22.9833H5.48307L6.2555 13.1524L6.25658 13.1387V13.125C6.25658 11.8809 7.53659 10.5583 9.11491 10.5583H13.1253ZM18.9587 12.775H18.6087V13.125V16.0417V16.3917H18.9587H26.2503H26.6003V16.0417V13.125V12.775H26.2503H18.9587ZM8.75033 12.775H8.40033V13.125V14.5833V14.9333H8.75033H11.667H12.017V14.5833V13.125V12.775H11.667H8.75033ZM13.1253 12.775H12.7753V13.125V14.5833V14.9333H13.1253H16.042H16.392V14.5833V13.125V12.775H16.042H13.1253ZM8.75033 15.6917H8.40033V16.0417V17.5V17.85H8.75033H11.667H12.017V17.5V16.0417V15.6917H11.667H8.75033ZM13.1253 15.6917H12.7753V16.0417V17.5V17.85H13.1253H16.042H16.392V17.5V16.0417V15.6917H16.042H13.1253ZM8.75033 18.6083H8.40033V18.9583V20.4167V20.7667H8.75033H11.667H12.017V20.4167V18.9583V18.6083H11.667H8.75033ZM13.1253 18.6083H12.7753V18.9583V20.4167V20.7667H13.1253H16.042H16.392V20.4167V18.9583V18.6083H16.042H13.1253ZM10.2087 5.48333H9.85866V5.83333V7.29167V7.64167H10.2087H18.9587H19.3087V7.29167V5.83333V5.48333H18.9587H10.2087ZM3.26699 25.1417H31.7337V30.275H3.26699V25.1417Z" fill="#FFE082" stroke="black" stroke-width="0.7"/>
</g>
</svg>
