<svg width="56" height="48" viewBox="0 0 56 48" fill="none" xmlns="http://www.w3.org/2000/svg">
<g id="Group 23">
<g id="Group 30">
<g id="Sign in button">
<rect id="Rectangle 476" x="4.27539" width="47.4545" height="3.4699" fill="black"/>
<rect id="Rectangle 478" x="4.27539" y="41.0605" width="47.4545" height="3.4699" fill="black"/>
<rect id="Rectangle 492" x="4.27539" y="44.5303" width="47.4545" height="3.4699" fill="#CFA776" fill-opacity="0.56"/>
<rect id="Rectangle 479" x="2.63867" y="6.93945" width="3.4699" height="1.63636" transform="rotate(-90 2.63867 6.93945)" fill="black"/>
<rect id="Rectangle 483" x="51.7305" y="6.93945" width="3.4699" height="1.63636" transform="rotate(-90 51.7305 6.93945)" fill="black"/>
<rect id="Rectangle 480" x="2.63867" y="41.0605" width="3.4699" height="1.63636" transform="rotate(-90 2.63867 41.0605)" fill="black"/>
<rect id="Rectangle 494" x="2.63867" y="44.5303" width="3.4699" height="1.63636" transform="rotate(-90 2.63867 44.5303)" fill="#B08B5E"/>
<rect id="Rectangle 495" x="1.00293" y="41.0605" width="3.4699" height="1.63636" transform="rotate(-90 1.00293 41.0605)" fill="#B08B5E"/>
<rect id="Rectangle 484" x="51.7305" y="41.0605" width="3.4699" height="1.63636" transform="rotate(-90 51.7305 41.0605)" fill="black"/>
<rect id="Rectangle 493" x="51.7305" y="44.5303" width="3.4699" height="1.63636" transform="rotate(-90 51.7305 44.5303)" fill="#A98358"/>
<rect id="Rectangle 496" x="53.3672" y="41.0605" width="3.4699" height="1.63636" transform="rotate(-90 53.3672 41.0605)" fill="#A98358"/>
<rect id="Rectangle 477" x="4.27539" y="3.46973" width="47.4545" height="37.5906" fill="#9B0A0A"/>
<rect id="Rectangle 481" x="2.63867" y="6.93945" width="1.63636" height="30.6508" fill="#9B0A0A"/>
<rect id="Rectangle 485" x="51.7305" y="6.93945" width="1.63636" height="30.6508" fill="#9B0A0A"/>
<rect id="Rectangle 482" width="3" height="31" transform="matrix(-1 0 0 1 3.00195 7)" fill="black"/>
<rect id="Rectangle 486" width="3" height="31" transform="matrix(-1 0 0 1 56.002 7)" fill="black"/>
<rect id="Rectangle 487" x="4.27539" y="32.9639" width="47.4545" height="3.4699" fill="#780C0C"/>
<rect id="Rectangle 488" x="4.27539" y="29.4941" width="47.4545" height="3.4699" fill="#780C0C"/>
<rect id="Rectangle 489" x="4.27539" y="26.0244" width="47.4545" height="3.4699" fill="#780C0C"/>
<rect id="Rectangle 497" x="4.27539" y="23.7109" width="47.4545" height="3.4699" fill="#780C0C"/>
<rect id="Rectangle 490" x="2.63867" y="34.6992" width="14.4579" height="1.63636" transform="rotate(-90 2.63867 34.6992)" fill="#780C0C"/>
<rect id="Rectangle 491" x="51.7305" y="34.1201" width="13.8796" height="1.63636" transform="rotate(-90 51.7305 34.1201)" fill="#780C0C"/>
</g>
<path id="Vector 1" d="M17.5 13.5L28.25 21.25L39 29" stroke="white" stroke-width="5"/>
<path id="Vector 2" d="M17.9814 29.6279L28.2497 21.2501L38.5179 12.8722" stroke="white" stroke-width="5"/>
</g>
</g>
</svg>
