<svg width="24" height="24" viewBox="0 0 24 24" fill="none" xmlns="http://www.w3.org/2000/svg">
<g id="eva:edit-2-fill">
<g id="evaEdit2Fill0">
<g id="evaEdit2Fill1">
<path id="evaEdit2Fill2" d="M18.9998 19.9999H4.99981C4.73459 19.9999 4.48024 20.1052 4.2927 20.2928C4.10517 20.4803 3.99981 20.7346 3.99981 20.9999C3.99981 21.2651 4.10517 21.5194 4.2927 21.707C4.48024 21.8945 4.73459 21.9999 4.99981 21.9999H18.9998C19.265 21.9999 19.5194 21.8945 19.7069 21.707C19.8945 21.5194 19.9998 21.2651 19.9998 20.9999C19.9998 20.7346 19.8945 20.4803 19.7069 20.2928C19.5194 20.1052 19.265 19.9999 18.9998 19.9999ZM4.99981 17.9999H5.08981L9.25981 17.6199C9.71661 17.5744 10.1438 17.3731 10.4698 17.0499L19.4698 8.04986C19.8191 7.68083 20.0079 7.18837 19.9948 6.68039C19.9817 6.17242 19.7677 5.69037 19.3998 5.33986L16.6598 2.59986C16.3022 2.26395 15.8336 2.07122 15.3431 2.05831C14.8527 2.0454 14.3746 2.21323 13.9998 2.52986L4.99981 11.5299C4.67657 11.8558 4.47531 12.2831 4.42981 12.7399L3.99981 16.9099C3.98634 17.0563 4.00534 17.204 4.05547 17.3422C4.1056 17.4805 4.18561 17.606 4.28981 17.7099C4.38325 17.8025 4.49406 17.8759 4.6159 17.9256C4.73774 17.9754 4.8682 18.0006 4.99981 17.9999ZM15.2698 3.99986L17.9998 6.72986L15.9998 8.67986L13.3198 5.99986L15.2698 3.99986Z" fill="black"/>
</g>
</g>
</g>
</svg>
