<svg width="146" height="62" viewBox="0 0 146 62" fill="none" xmlns="http://www.w3.org/2000/svg">
<g id="Sign in button">
<rect id="Rectangle 476" x="8.84863" width="128.303" height="4.42424" fill="black"/>
<rect id="Rectangle 478" x="8.84863" y="52.3535" width="128.303" height="4.42424" fill="black"/>
<rect id="Rectangle 492" x="8.84863" y="56.7773" width="128.303" height="4.42424" fill="#CFA776" fill-opacity="0.56"/>
<rect id="Rectangle 479" x="4.42383" y="8.84863" width="4.42424" height="4.42424" transform="rotate(-90 4.42383 8.84863)" fill="black"/>
<rect id="Rectangle 483" x="137.151" y="8.84863" width="4.42424" height="4.42424" transform="rotate(-90 137.151 8.84863)" fill="black"/>
<rect id="Rectangle 480" x="4.42383" y="52.3535" width="4.42424" height="4.42424" transform="rotate(-90 4.42383 52.3535)" fill="black"/>
<rect id="Rectangle 494" x="4.42383" y="56.7773" width="4.42424" height="4.42424" transform="rotate(-90 4.42383 56.7773)" fill="#B08B5E"/>
<rect id="Rectangle 495" y="52.3535" width="4.42424" height="4.42424" transform="rotate(-90 0 52.3535)" fill="#B08B5E"/>
<rect id="Rectangle 484" x="137.151" y="52.3535" width="4.42424" height="4.42424" transform="rotate(-90 137.151 52.3535)" fill="black"/>
<rect id="Rectangle 493" x="137.151" y="56.7773" width="4.42424" height="4.42424" transform="rotate(-90 137.151 56.7773)" fill="#A98358"/>
<rect id="Rectangle 496" x="141.576" y="52.3535" width="4.42424" height="4.42424" transform="rotate(-90 141.576 52.3535)" fill="#A98358"/>
<rect id="Rectangle 477" x="8.84863" y="4.42383" width="128.303" height="47.9293" fill="#ACCA66"/>
<rect id="Rectangle 481" x="4.42383" y="8.84863" width="4.42424" height="39.0808" fill="#ACCA66"/>
<rect id="Rectangle 485" x="137.151" y="8.84863" width="4.42424" height="39.0808" fill="#ACCA66"/>
<rect id="Rectangle 482" width="4.42424" height="39.0808" transform="matrix(-1 0 0 1 4.42383 8.84863)" fill="black"/>
<rect id="Rectangle 486" width="4.42424" height="39.0808" transform="matrix(-1 0 0 1 146 8.84863)" fill="black"/>
<rect id="Rectangle 487" x="8.84863" y="42.0303" width="128.303" height="4.42424" fill="#90AD4D"/>
<rect id="Rectangle 488" x="8.84863" y="37.6064" width="128.303" height="4.42424" fill="#90AD4D"/>
<rect id="Rectangle 489" x="8.84863" y="33.1816" width="128.303" height="4.42424" fill="#90AD4D"/>
<rect id="Rectangle 497" x="8.84863" y="30.2324" width="128.303" height="4.42424" fill="#90AD4D"/>
<rect id="Rectangle 490" x="4.42383" y="44.2422" width="18.4343" height="4.42424" transform="rotate(-90 4.42383 44.2422)" fill="#90AD4D"/>
<rect id="Rectangle 491" x="137.151" y="43.5049" width="17.697" height="4.42424" transform="rotate(-90 137.151 43.5049)" fill="#90AD4D"/>
</g>
</svg>
